<svg xmlns="http://www.w3.org/2000/svg" xmlns:xlink="http://www.w3.org/1999/xlink" width="400" zoomAndPan="magnify" viewBox="0 0 300 299.999988" height="400" preserveAspectRatio="xMidYMid meet" version="1.0"><path fill="#ffffff" d="M 150 300 C 225.855469 300 288.785156 243.339844 298.648438 170.15625 C 299.050781 167.171875 296.632812 164.5 293.617188 164.5 L 205.5 164.5 L 161.5 221.5 C 158.699219 225.101562 154.5 227.199219 150 227.199219 C 149.300781 227.199219 148.601562 227.097656 148 227 C 142.800781 226.300781 138.398438 222.800781 136.5 218 L 99.5 123.898438 L 81.300781 157 C 78.800781 161.601562 73.898438 164.5 68.601562 164.5 L 6.382812 164.5 C 3.367188 164.5 0.949219 167.171875 1.351562 170.15625 C 11.214844 243.339844 74.144531 300 150 300 Z M 150 300 " fill-opacity="1" fill-rule="nonzero"/><path fill="#ffffff" d="M 6.382812 135.5 L 60 135.5 L 88.898438 82.800781 C 91.601562 77.898438 96.800781 74.898438 102.5 75.300781 C 108.199219 75.601562 113.101562 79.199219 115.101562 84.5 L 154.101562 183.5 L 186.898438 141.101562 C 189.601562 137.601562 193.898438 135.5 198.398438 135.5 L 293.617188 135.5 C 296.632812 135.5 299.050781 132.828125 298.648438 129.84375 C 288.785156 56.660156 225.855469 0 150 0 C 74.144531 0 11.214844 56.660156 1.351562 129.84375 C 0.949219 132.828125 3.367188 135.5 6.382812 135.5 Z M 6.382812 135.5 " fill-opacity="1" fill-rule="nonzero"/></svg>